<svg xmlns="http://www.w3.org/2000/svg"  viewBox="0 0 100 100" width="100px" height="100px"><path fill="#c7ede6" d="M87.215,56.71C88.35,54.555,89,52.105,89,49.5c0-6.621-4.159-12.257-10.001-14.478 C78.999,35.015,79,35.008,79,35c0-11.598-9.402-21-21-21c-9.784,0-17.981,6.701-20.313,15.757C36.211,29.272,34.638,29,33,29 c-7.692,0-14.023,5.793-14.89,13.252C12.906,43.353,9,47.969,9,53.5C9,59.851,14.149,65,20.5,65c0.177,0,0.352-0.012,0.526-0.022 C21.022,65.153,21,65.324,21,65.5C21,76.822,30.178,86,41.5,86c6.437,0,12.175-2.972,15.934-7.614C59.612,80.611,62.64,82,66,82 c4.65,0,8.674-2.65,10.666-6.518C77.718,75.817,78.837,76,80,76c6.075,0,11-4.925,11-11C91,61.689,89.53,58.727,87.215,56.71z"/><path fill="#fdfcef" d="M33.875,37.5c0,0,3.64,0,6.125,0s4.5-2.015,4.5-4.5c0-2.333-1.782-4.229-4.055-4.455 C40.467,28.364,40.5,28.187,40.5,28c0-2.485-2.015-4.5-4.5-4.5c-1.438,0-2.703,0.686-3.527,1.736 C32.333,22.6,30.171,20.5,27.5,20.5c-2.761,0-5,2.239-5,5c0,0.446,0.077,0.87,0.187,1.282C22.045,26.005,21.086,25.5,20,25.5 c-1.781,0-3.234,1.335-3.455,3.055C16.364,28.533,16.187,28.5,16,28.5c-2.485,0-4.5,2.015-4.5,4.5s2.015,4.5,4.5,4.5s9.5,0,9.5,0 h5.375V38h3V37.5z"/><path fill="#472b29" d="M27.5,20c-3.033,0-5.5,2.467-5.5,5.5c0,0.016,0,0.031,0,0.047C21.398,25.192,20.71,25,20,25 c-1.831,0-3.411,1.261-3.858,3.005C16.095,28.002,16.048,28,16,28c-2.757,0-5,2.243-5,5s2.243,5,5,5h14.875 c0.276,0,0.5-0.224,0.5-0.5s-0.224-0.5-0.5-0.5H16c-2.206,0-4-1.794-4-4s1.794-4,4-4c0.117,0,0.23,0.017,0.343,0.032l0.141,0.019 c0.021,0.003,0.041,0.004,0.062,0.004c0.246,0,0.462-0.185,0.495-0.437C17.232,27.125,18.504,26,20,26 c0.885,0,1.723,0.401,2.301,1.1c0.098,0.118,0.241,0.182,0.386,0.182c0.078,0,0.156-0.018,0.228-0.056 c0.209-0.107,0.314-0.346,0.254-0.573C23.054,26.218,23,25.852,23,25.5c0-2.481,2.019-4.5,4.5-4.5 c2.381,0,4.347,1.872,4.474,4.263c0.011,0.208,0.15,0.387,0.349,0.45c0.05,0.016,0.101,0.024,0.152,0.024 c0.15,0,0.296-0.069,0.392-0.192C33.638,24.563,34.779,24,36,24c2.206,0,4,1.794,4,4c0,0.117-0.017,0.23-0.032,0.343l-0.019,0.141 c-0.016,0.134,0.022,0.268,0.106,0.373c0.084,0.105,0.207,0.172,0.34,0.185C42.451,29.247,44,30.949,44,33c0,2.206-1.794,4-4,4 h-6.125c-0.276,0-0.5,0.224-0.5,0.5s0.224,0.5,0.5,0.5H40c2.757,0,5-2.243,5-5c0-2.397-1.689-4.413-4.003-4.877 C40.999,28.082,41,28.041,41,28c0-2.757-2.243-5-5-5c-1.176,0-2.293,0.416-3.183,1.164C32.219,21.76,30.055,20,27.5,20L27.5,20z"/><path fill="#472b29" d="M26,27c-1.403,0-2.609,0.999-2.913,2.341C22.72,29.119,22.301,29,21.875,29 c-1.202,0-2.198,0.897-2.353,2.068C19.319,31.022,19.126,31,18.937,31c-1.529,0-2.811,1.2-2.918,2.732 C16.01,33.87,16.114,33.99,16.251,34c0.006,0,0.012,0,0.018,0c0.13,0,0.24-0.101,0.249-0.232c0.089-1.271,1.151-2.268,2.419-2.268 c0.229,0,0.47,0.042,0.738,0.127c0.022,0.007,0.045,0.01,0.067,0.01c0.055,0,0.11-0.02,0.156-0.054 C19.962,31.537,20,31.455,20,31.375c0-1.034,0.841-1.875,1.875-1.875c0.447,0,0.885,0.168,1.231,0.473 c0.047,0.041,0.106,0.063,0.165,0.063c0.032,0,0.063-0.006,0.093-0.019c0.088-0.035,0.148-0.117,0.155-0.212 C23.623,28.512,24.712,27.5,26,27.5c0.208,0,0.425,0.034,0.682,0.107c0.023,0.007,0.047,0.01,0.07,0.01 c0.109,0,0.207-0.073,0.239-0.182c0.038-0.133-0.039-0.271-0.172-0.309C26.517,27.04,26.256,27,26,27L26,27z"/><path fill="#472b29" d="M39.883,28.5c-1.326,0-2.508,0.897-2.874,2.182c-0.038,0.133,0.039,0.271,0.172,0.309 C37.205,30.997,37.228,31,37.25,31c0.109,0,0.209-0.072,0.24-0.182C37.795,29.748,38.779,29,39.883,29 c0.117,0,0.23,0.014,0.342,0.029c0.012,0.002,0.023,0.003,0.035,0.003c0.121,0,0.229-0.092,0.246-0.217 c0.019-0.137-0.077-0.263-0.214-0.281C40.158,28.516,40.022,28.5,39.883,28.5L39.883,28.5z"/><path fill="#fff" d="M26.25,71.3c-1.406,0-2.55-1.144-2.55-2.55v-31.5c0-1.406,1.144-2.55,2.55-2.55h49.5 c1.406,0,2.55,1.144,2.55,2.55v31.5c0,1.406-1.144,2.55-2.55,2.55H26.25z"/><path fill="#472b29" d="M75.75,35.4c1.02,0,1.85,0.83,1.85,1.85v31.5c0,1.02-0.83,1.85-1.85,1.85h-49.5 c-1.02,0-1.85-0.83-1.85-1.85v-31.5c0-1.02,0.83-1.85,1.85-1.85H75.75 M75.75,34h-49.5C24.455,34,23,35.455,23,37.25v31.5 c0,1.795,1.455,3.25,3.25,3.25h49.5c1.795,0,3.25-1.455,3.25-3.25v-31.5C79,35.455,77.545,34,75.75,34L75.75,34z"/><path fill="#fff" d="M35.405,80H25.5c-0.276,0-0.5-0.224-0.5-0.5s0.224-0.5,0.5-0.5h9.905c0.276,0,0.5,0.224,0.5,0.5 S35.682,80,35.405,80z"/><path fill="#fff" d="M38.5,80h-1c-0.276,0-0.5-0.224-0.5-0.5s0.224-0.5,0.5-0.5h1c0.276,0,0.5,0.224,0.5,0.5 S38.777,80,38.5,80z"/><path fill="#fff" d="M43.491,82H34.5c-0.276,0-0.5-0.224-0.5-0.5s0.224-0.5,0.5-0.5h8.991c0.276,0,0.5,0.224,0.5,0.5 S43.767,82,43.491,82z"/><path fill="#fff" d="M32.5,82h-1c-0.276,0-0.5-0.224-0.5-0.5s0.224-0.5,0.5-0.5h1c0.276,0,0.5,0.224,0.5,0.5 S32.777,82,32.5,82z"/><path fill="#fff" d="M29.5,82h-2c-0.276,0-0.5-0.224-0.5-0.5s0.224-0.5,0.5-0.5h2c0.276,0,0.5,0.224,0.5,0.5 S29.777,82,29.5,82z"/><path fill="#fff" d="M35.5,84h-2c-0.276,0-0.5-0.224-0.5-0.5s0.224-0.5,0.5-0.5h2c0.276,0,0.5,0.224,0.5,0.5 S35.776,84,35.5,84z"/><path fill="#fff" d="M38.5,75c-0.177,0-0.823,0-1,0c-0.276,0-0.5,0.224-0.5,0.5c0,0.276,0.224,0.5,0.5,0.5 c0.177,0,0.823,0,1,0c0.276,0,0.5-0.224,0.5-0.5C39,75.224,38.776,75,38.5,75z"/><path fill="#fff" d="M38.5,77c-0.177,0-4.823,0-5,0c-0.276,0-0.5,0.224-0.5,0.5c0,0.276,0.224,0.5,0.5,0.5 c0.177,0,4.823,0,5,0c0.276,0,0.5-0.224,0.5-0.5C39,77.224,38.776,77,38.5,77z"/><path fill="#fff" d="M43.5,79c-0.177,0-2.823,0-3,0c-0.276,0-0.5,0.224-0.5,0.5c0,0.276,0.224,0.5,0.5,0.5 c0.177,0,2.823,0,3,0c0.276,0,0.5-0.224,0.5-0.5C44,79.224,43.776,79,43.5,79z"/><path fill="#fff" d="M71.5,25h-10c-0.276,0-0.5-0.224-0.5-0.5s0.224-0.5,0.5-0.5h10c0.276,0,0.5,0.224,0.5,0.5 S71.776,25,71.5,25z"/><path fill="#fff" d="M75.5,25h-2c-0.276,0-0.5-0.224-0.5-0.5s0.224-0.5,0.5-0.5h2c0.276,0,0.5,0.224,0.5,0.5 S75.776,25,75.5,25z"/><path fill="#fff" d="M80.5,27h-10c-0.276,0-0.5-0.224-0.5-0.5s0.224-0.5,0.5-0.5h10c0.276,0,0.5,0.224,0.5,0.5 S80.777,27,80.5,27z"/><path fill="#fff" d="M68.5,27h-1c-0.276,0-0.5-0.224-0.5-0.5s0.224-0.5,0.5-0.5h1c0.276,0,0.5,0.224,0.5,0.5 S68.776,27,68.5,27z"/><path fill="#fff" d="M65.375,27H63.5c-0.276,0-0.5-0.224-0.5-0.5s0.224-0.5,0.5-0.5h1.875c0.276,0,0.5,0.224,0.5,0.5 S65.651,27,65.375,27z"/><path fill="#fff" d="M74.5,23h-5c-0.276,0-0.5-0.224-0.5-0.5s0.224-0.5,0.5-0.5h5c0.276,0,0.5,0.224,0.5,0.5 S74.777,23,74.5,23z"/><path fill="#fff" d="M71.5,29h-2c-0.276,0-0.5-0.224-0.5-0.5s0.224-0.5,0.5-0.5h2c0.276,0,0.5,0.224,0.5,0.5 S71.776,29,71.5,29z"/><g><path fill="#472b29" d="M75.5,37.75H70c-0.138,0-0.25-0.112-0.25-0.25s0.112-0.25,0.25-0.25h5.5 c0.138,0,0.25,0.112,0.25,0.25S75.638,37.75,75.5,37.75z"/></g><g><path fill="#472b29" d="M75.5,68.75H70c-0.138,0-0.25-0.112-0.25-0.25s0.112-0.25,0.25-0.25h5.5 c0.138,0,0.25,0.112,0.25,0.25S75.638,68.75,75.5,68.75z"/></g><g><path fill="#472b29" d="M52,68.75H26.5c-0.138,0-0.25-0.112-0.25-0.25s0.112-0.25,0.25-0.25H52 c0.138,0,0.25,0.112,0.25,0.25S52.138,68.75,52,68.75z"/></g><g><path fill="#472b29" d="M46.5,37.75H35c-0.138,0-0.25-0.112-0.25-0.25s0.112-0.25,0.25-0.25h11.5 c0.138,0,0.25,0.112,0.25,0.25S46.638,37.75,46.5,37.75z"/></g><g><path fill="#472b29" d="M33,37.75h-6.5c-0.138,0-0.25-0.112-0.25-0.25s0.112-0.25,0.25-0.25H33 c0.138,0,0.25,0.112,0.25,0.25S33.138,37.75,33,37.75z"/></g><g><path fill="#472b29" d="M26.501,68.75c-0.138,0-0.25-0.112-0.25-0.25V58c0-0.138,0.112-0.25,0.25-0.25s0.25,0.112,0.25,0.25 v10.5C26.751,68.638,26.639,68.75,26.501,68.75z"/></g><g><path fill="#472b29" d="M75.502,68.75c-0.138,0-0.25-0.112-0.25-0.25V62c0-0.138,0.112-0.25,0.25-0.25s0.25,0.112,0.25,0.25 v6.5C75.752,68.638,75.64,68.75,75.502,68.75z"/></g><g><path fill="#472b29" d="M75.5,44.25c-0.138,0-0.25-0.112-0.25-0.25v-6.5c0-0.138,0.112-0.25,0.25-0.25s0.25,0.112,0.25,0.25 V44C75.75,44.138,75.638,44.25,75.5,44.25z"/></g><g><path fill="#472b29" d="M75.5,56.75c-0.138,0-0.25-0.112-0.25-0.25V46c0-0.138,0.112-0.25,0.25-0.25s0.25,0.112,0.25,0.25 v10.5C75.75,56.638,75.638,56.75,75.5,56.75z"/></g><g><line x1="26.502" x2="26.501" y1="49" y2="56" fill="#cbc9bc"/><path fill="#472b29" d="M26.501,56.25L26.501,56.25c-0.138,0-0.25-0.112-0.25-0.25l0.001-7c0-0.138,0.112-0.25,0.25-0.25 l0,0c0.138,0,0.25,0.112,0.25,0.25l-0.001,7C26.751,56.138,26.639,56.25,26.501,56.25z"/></g><g><line x1="26.499" x2="26.498" y1="37.5" y2="45" fill="#cbc9bc"/><path fill="#472b29" d="M26.498,45.25L26.498,45.25c-0.138,0-0.25-0.112-0.25-0.25l0.001-7.5c0-0.138,0.112-0.25,0.25-0.25 l0,0c0.138,0,0.25,0.112,0.25,0.25L26.748,45C26.748,45.138,26.636,45.25,26.498,45.25z"/></g><g><path fill="#472b29" d="M68,37.75H49.5c-0.138,0-0.25-0.112-0.25-0.25s0.112-0.25,0.25-0.25H68 c0.138,0,0.25,0.112,0.25,0.25S68.138,37.75,68,37.75z"/></g><g><path fill="#472b29" d="M68,68.75H55c-0.138,0-0.25-0.112-0.25-0.25s0.112-0.25,0.25-0.25h13c0.138,0,0.25,0.112,0.25,0.25 S68.138,68.75,68,68.75z"/></g><g><path fill="#fdfcef" d="M86.5,64.5c0,0,1.567,0,3.5,0s3.5-1.567,3.5-3.5c0-1.781-1.335-3.234-3.055-3.455 C90.473,57.366,90.5,57.187,90.5,57c0-1.933-1.567-3.5-3.5-3.5c-1.032,0-1.95,0.455-2.59,1.165 c-0.384-1.808-1.987-3.165-3.91-3.165c-2.209,0-4,1.791-4,4c0,0.191,0.03,0.374,0.056,0.558C76.128,55.714,75.592,55.5,75,55.5 c-1.228,0-2.245,0.887-2.455,2.055C72.366,57.527,72.187,57.5,72,57.5c-1.933,0-3.5,1.567-3.5,3.5s1.567,3.5,3.5,3.5s7.5,0,7.5,0 V65h7V64.5z"/><path fill="#472b29" d="M88.25,60C88.112,60,88,59.888,88,59.75c0-1.223,0.995-2.218,2.218-2.218 c0.034,0.009,0.737-0.001,1.244,0.136c0.133,0.036,0.212,0.173,0.176,0.306c-0.036,0.134-0.173,0.213-0.306,0.176 c-0.444-0.12-1.1-0.12-1.113-0.118c-0.948,0-1.719,0.771-1.719,1.718C88.5,59.888,88.388,60,88.25,60z"/><circle cx="81.5" cy="64.5" r=".5" fill="#472b29"/><path fill="#472b29" d="M90,65h-3.5c-0.276,0-0.5-0.224-0.5-0.5s0.224-0.5,0.5-0.5H90c1.654,0,3-1.346,3-3 c0-1.496-1.125-2.768-2.618-2.959c-0.134-0.018-0.255-0.088-0.336-0.196s-0.115-0.244-0.094-0.377C89.975,57.314,90,57.16,90,57 c0-1.654-1.346-3-3-3c-0.85,0-1.638,0.355-2.219,1c-0.125,0.139-0.321,0.198-0.5,0.148c-0.182-0.049-0.321-0.195-0.36-0.379 C83.58,53.165,82.141,52,80.5,52c-1.93,0-3.5,1.57-3.5,3.5c0,0.143,0.021,0.28,0.041,0.418c0.029,0.203-0.063,0.438-0.242,0.54 c-0.179,0.102-0.396,0.118-0.556-0.01C75.878,56.155,75.449,56,75,56c-0.966,0-1.792,0.691-1.963,1.644 c-0.048,0.267-0.296,0.446-0.569,0.405C72.314,58.025,72.16,58,72,58c-1.654,0-3,1.346-3,3s1.346,3,3,3h7.5 c0.276,0,0.5,0.224,0.5,0.5S79.776,65,79.5,65H72c-2.206,0-4-1.794-4-4s1.794-4,4-4c0.059,0,0.116,0.002,0.174,0.006 C72.588,55.82,73.711,55,75,55c0.349,0,0.689,0.061,1.011,0.18C76.176,52.847,78.126,51,80.5,51c1.831,0,3.466,1.127,4.153,2.774 C85.333,53.276,86.155,53,87,53c2.206,0,4,1.794,4,4c0,0.048-0.001,0.095-0.004,0.142C92.739,57.59,94,59.169,94,61 C94,63.206,92.206,65,90,65z"/><path fill="#472b29" d="M84.5,64c-0.159,0-0.841,0-1,0c-0.276,0-0.5,0.224-0.5,0.5c0,0.276,0.224,0.5,0.5,0.5 c0.159,0,0.841,0,1,0c0.276,0,0.5-0.224,0.5-0.5C85,64.224,84.776,64,84.5,64z"/></g><g><circle cx="51.042" cy="53.042" r="9.458" fill="#ee3e54"/><path fill="#472b29" d="M41.809,51.23c-0.018,0-0.036-0.002-0.055-0.006c-0.135-0.03-0.22-0.164-0.189-0.298 c0.391-1.756,1.265-3.369,2.528-4.665c0.235-0.242,0.488-0.475,0.75-0.692c0.105-0.087,0.263-0.075,0.353,0.033 c0.088,0.106,0.073,0.264-0.032,0.352c-0.249,0.207-0.489,0.428-0.713,0.657c-1.198,1.229-2.027,2.759-2.397,4.424 C42.026,51.151,41.924,51.23,41.809,51.23z"/><path fill="#472b29" d="M51.042,62.75c-5.354,0-9.709-4.355-9.709-9.708c0-0.138,0.112-0.25,0.25-0.25 s0.25,0.112,0.25,0.25c0,5.077,4.131,9.208,9.209,9.208c2.689,0,5.237-1.172,6.991-3.216c0.09-0.104,0.246-0.117,0.353-0.026 c0.104,0.09,0.116,0.247,0.026,0.353C56.564,61.515,53.878,62.75,51.042,62.75z"/><path fill="#472b29" d="M59.178,58.118c-0.044,0-0.088-0.012-0.128-0.035c-0.118-0.07-0.157-0.224-0.087-0.343 c0.842-1.417,1.287-3.041,1.287-4.698c0-5.078-4.131-9.208-9.208-9.208c-1.659,0-3.285,0.446-4.702,1.289 c-0.118,0.069-0.272,0.031-0.343-0.087c-0.07-0.119-0.031-0.272,0.087-0.343c1.495-0.889,3.209-1.359,4.958-1.359 c5.353,0,9.708,4.355,9.708,9.708c0,1.747-0.47,3.46-1.357,4.954C59.346,58.074,59.263,58.118,59.178,58.118z"/></g></svg>