<svg xmlns="http://www.w3.org/2000/svg" xmlns:xlink="http://www.w3.org/1999/xlink" viewBox="0 0 48 48" width="96px" height="96px"><defs><linearGradient id="i1zZYyWWWThYLFgsKqCSsb" x1="25.5" x2="25.5" y1="7" y2="41" gradientTransform="matrix(1.03 0 0 1 -2.273 0)" gradientUnits="userSpaceOnUse"><stop offset="0" stop-color="#ffb61a"/><stop offset="1" stop-color="#d66700"/></linearGradient><linearGradient id="i1zZYyWWWThYLFgsKqCSsa" x1="9" x2="42" y1="24" y2="24" gradientTransform="matrix(1.03 0 0 1 -2.273 0)" gradientUnits="userSpaceOnUse"><stop offset="0" stop-color="#e6b027" stop-opacity="0"/><stop offset=".394" stop-color="#e6af27" stop-opacity=".01"/><stop offset=".535" stop-color="#e4ab25" stop-opacity=".045"/><stop offset=".637" stop-color="#e2a423" stop-opacity=".106"/><stop offset=".718" stop-color="#df9b1f" stop-opacity=".193"/><stop offset=".788" stop-color="#db8f1b" stop-opacity=".306"/><stop offset=".85" stop-color="#d67f16" stop-opacity=".446"/><stop offset=".907" stop-color="#d06d0f" stop-opacity=".614"/><stop offset=".956" stop-color="#c95908" stop-opacity=".801"/><stop offset="1" stop-color="#c24300"/></linearGradient><linearGradient id="i1zZYyWWWThYLFgsKqCSsc" x1="-1179" x2="-1146" y1="-1200" y2="-1200" gradientTransform="matrix(1.03 0 0 1 1221.727 1224)" xlink:href="#i1zZYyWWWThYLFgsKqCSsa"/><linearGradient id="i1zZYyWWWThYLFgsKqCSsd" x1="9" x2="42" y1="-2424" y2="-2424" gradientTransform="matrix(1.03 0 0 1 -2.273 2448)" xlink:href="#i1zZYyWWWThYLFgsKqCSsa"/><linearGradient id="i1zZYyWWWThYLFgsKqCSse" x1="1197" x2="1230" y1="-1200" y2="-1200" gradientTransform="matrix(1.03 0 0 1 -1226.273 1224)" xlink:href="#i1zZYyWWWThYLFgsKqCSsa"/><linearGradient id="i1zZYyWWWThYLFgsKqCSsf" x1="22.5" x2="22.5" y1="12.222" y2="35.75" gradientUnits="userSpaceOnUse"><stop offset="0" stop-color="#fff"/><stop offset=".325" stop-color="#fbfbfc"/><stop offset=".662" stop-color="#eeeef4"/><stop offset="1" stop-color="#dadae6"/></linearGradient></defs><g data-name="japan button"><rect width="34" height="34" x="7" y="7" fill="url(#i1zZYyWWWThYLFgsKqCSsb)" rx="3"/><g opacity=".5"><rect width="34" height="34" x="7" y="7" fill="url(#i1zZYyWWWThYLFgsKqCSsa)" rx="3"/><rect width="34" height="34" x="7" y="7" fill="url(#i1zZYyWWWThYLFgsKqCSsc)" rx="3" transform="rotate(-90 24 24)"/><rect width="34" height="34" x="7" y="7" fill="url(#i1zZYyWWWThYLFgsKqCSsd)" rx="3" transform="rotate(-180 24 24)"/><rect width="34" height="34" x="7" y="7" fill="url(#i1zZYyWWWThYLFgsKqCSse)" rx="3" transform="rotate(90 24 24)"/></g><path fill="url(#i1zZYyWWWThYLFgsKqCSsf)" d="M33,31.2c0,2.133-.49,3.2-1.806,3.822a12.541,12.541,0,0,1-5.1.726.994.994,0,0,1-.959-.727,16.586,16.586,0,0,0-.645-1.775,1,1,0,0,1,.94-1.391c1.208.034,2.351.022,2.774.022.593,0,.8-.208.8-.729V28.16h-10.3a14.508,14.508,0,0,1-3.542,6.889.992.992,0,0,1-1.432-.017,18.031,18.031,0,0,0-1.389-1.311.994.994,0,0,1-.064-1.442c3.016-3.153,3.279-7.566,3.279-11.139V13.222a1,1,0,0,1,.992-1H32.008a1,1,0,0,1,.992,1Zm-4-6.708V22H19.429c-.027.78-.078,1.638-.156,2.5Zm-9.572-8.58v2.5H29v-2.5Z"/></g></svg>