<svg xmlns="http://www.w3.org/2000/svg"  viewBox="0 0 100 100" width="100px" height="100px"><circle cx="77" cy="13" r="1" fill="#f1bc19"/><circle cx="50" cy="50" r="37" fill="#e6edb7"/><circle cx="83" cy="15" r="4" fill="#f1bc19"/><circle cx="87" cy="24" r="2" fill="#9f8066"/><circle cx="81" cy="76" r="2" fill="#fbcd59"/><circle cx="25" cy="87" r="2" fill="#9f8066"/><circle cx="33.5" cy="22.5" r="2.5" fill="#fff"/><circle cx="79.5" cy="40.5" r="1.5" fill="#fff"/><circle cx="16.125" cy="68.958" r="4" fill="#fbcd59"/><path fill="#00a5a5" d="M42.023,73.175c-2.442,0-4.698-0.78-6.353-2.196c-1.916-1.641-2.97-4.078-2.97-6.864 c0-3.633,2.08-6.669,5.707-8.331c1.921-0.88,4.345-1.345,7.009-1.345c0.502,0,1.016,0.016,1.54,0.05 C46.97,54.49,46.985,54.49,47,54.49c0.177,0,0.349-0.067,0.479-0.19c0.141-0.132,0.221-0.317,0.221-0.51v-3.972 c0-0.187-0.075-0.366-0.208-0.497c-0.131-0.13-0.308-0.203-0.493-0.203c-0.002,0-0.004,0-0.007,0 c-0.763,0.007-1.512,0.012-2.233,0.012c-2.29,0-4.595-0.033-6.852-0.099c-0.898-0.026-1.728-0.405-2.336-1.067 c-0.61-0.664-0.919-1.527-0.87-2.429c0.098-1.76,1.541-3.135,3.286-3.135c2.293,0.063,4.537,0.095,6.762,0.095 c0.729,0,1.484-0.003,2.257-0.011c0.384-0.004,0.693-0.316,0.693-0.7v-2.637c0-0.19-0.078-0.373-0.215-0.505 c-0.131-0.126-0.305-0.195-0.485-0.195c-0.009,0-0.018,0-0.027,0c-3.432,0.134-9.117,0.219-12.942,0.252 c-1.849,0-3.33-1.487-3.33-3.315c0-1.811,1.472-3.296,3.281-3.312c4.061-0.035,9.62-0.121,13.047-0.258 c0.375-0.015,0.672-0.324,0.672-0.699v-2.046c0-0.755,0.611-1.369,1.362-1.369h3.875c0.751,0,1.362,0.614,1.362,1.369v1.603 c0,0.194,0.081,0.38,0.223,0.512c0.131,0.121,0.301,0.188,0.478,0.188c0.017,0,0.033,0,0.05-0.002 c0.848-0.06,1.851-0.124,2.916-0.192c2.67-0.17,5.697-0.364,7.688-0.587c0.126-0.014,0.251-0.021,0.375-0.021 c1.649,0,3.056,1.236,3.271,2.875c0.119,0.896-0.122,1.78-0.677,2.49c-0.548,0.7-1.334,1.141-2.213,1.239 c-2.296,0.258-5.734,0.479-8.768,0.673c-0.97,0.062-1.886,0.121-2.69,0.176c-0.367,0.025-0.652,0.33-0.652,0.698v2.824 c0,0.192,0.079,0.375,0.218,0.508c0.131,0.124,0.304,0.192,0.482,0.192c0.012,0,0.024,0,0.036-0.001 c2.353-0.122,4.584-0.29,6.632-0.498c0.115-0.012,0.23-0.017,0.344-0.017c1.641,0,3.052,1.221,3.282,2.84 c0.13,0.909-0.109,1.807-0.674,2.529c-0.553,0.707-1.344,1.146-2.229,1.236c-2.274,0.233-4.772,0.419-7.427,0.551 c-0.372,0.019-0.665,0.326-0.665,0.699v5.852c0,0.3,0.191,0.566,0.475,0.663c3.772,1.284,7.493,3.256,11.057,5.861 c0.743,0.543,1.21,1.351,1.315,2.275c0.105,0.926-0.182,1.859-0.788,2.561c-0.624,0.721-1.529,1.135-2.484,1.135l0,0 c-0.708,0-1.387-0.222-1.962-0.643c-2.255-1.649-4.582-3.004-6.917-4.027c-0.09-0.039-0.186-0.059-0.281-0.059 c-0.11,0-0.22,0.026-0.32,0.077c-0.187,0.096-0.321,0.272-0.364,0.478C52.722,69.94,47,73.175,42.023,73.175z M45.448,61.038 c-1.708,0-3.196,0.268-4.3,0.774c-1.656,0.758-1.848,1.677-1.848,2.302c0,0.602,0,2.434,2.723,2.434 c1.381,0,2.84-0.547,3.904-1.463c0.975-0.839,1.554-1.912,1.722-3.188c0.025-0.189-0.028-0.38-0.148-0.529 c-0.119-0.149-0.294-0.243-0.484-0.259C46.481,61.062,45.953,61.038,45.448,61.038z"/><path fill="#472b29" d="M52.937,28.4c0.365,0,0.663,0.3,0.663,0.669v1.603c0,0.389,0.162,0.76,0.446,1.024 c0.26,0.242,0.601,0.375,0.954,0.375c0.033,0,0.066-0.001,0.1-0.003c0.849-0.061,1.855-0.125,2.922-0.193 c2.674-0.171,5.705-0.365,7.709-0.59c0.1-0.011,0.199-0.017,0.297-0.017c1.299,0,2.408,0.975,2.579,2.266 c0.093,0.708-0.097,1.406-0.535,1.967c-0.431,0.551-1.049,0.897-1.739,0.975c-2.282,0.256-5.715,0.476-8.744,0.67 c-0.968,0.062-1.882,0.121-2.685,0.176c-0.734,0.05-1.304,0.661-1.304,1.396v2.824c0,0.384,0.158,0.751,0.436,1.015 c0.261,0.248,0.606,0.385,0.964,0.385c0.024,0,0.048,0,0.073-0.002c2.363-0.123,4.606-0.291,6.667-0.5 c0.092-0.01,0.183-0.014,0.273-0.014c1.316,0,2.404,0.942,2.589,2.239c0.102,0.718-0.087,1.428-0.533,1.999 c-0.434,0.555-1.055,0.9-1.748,0.971c-2.259,0.231-4.746,0.416-7.39,0.548c-0.745,0.038-1.33,0.652-1.33,1.398v5.853 c0,0.6,0.382,1.132,0.949,1.325c3.705,1.261,7.362,3.2,10.87,5.764c0.583,0.426,0.95,1.062,1.033,1.789 c0.083,0.732-0.144,1.47-0.623,2.024c-0.49,0.567-1.203,0.893-1.954,0.893c-0.559,0-1.094-0.176-1.549-0.508 c-2.294-1.679-4.666-3.059-7.05-4.103c-0.179-0.079-0.371-0.118-0.562-0.118c-0.22,0-0.44,0.052-0.64,0.155 c-0.375,0.192-0.643,0.543-0.73,0.956c-1.231,5.818-6.627,8.862-11.321,8.862c-2.275,0-4.369-0.72-5.897-2.028 c-1.758-1.505-2.726-3.754-2.726-6.332c0-3.347,1.931-6.152,5.299-7.694c1.83-0.838,4.153-1.281,6.717-1.281 c0.489,0,0.992,0.016,1.496,0.048c0.03,0.002,0.059,0.003,0.089,0.003c0.355,0,0.698-0.135,0.958-0.379 c0.282-0.265,0.442-0.634,0.442-1.021v-3.972c0-0.374-0.149-0.732-0.415-0.995c-0.262-0.26-0.616-0.405-0.985-0.405 c-0.004,0-0.009,0-0.013,0c-0.761,0.007-1.507,0.012-2.226,0.012c-2.272,0-4.571-0.033-6.832-0.099 c-0.708-0.021-1.362-0.319-1.842-0.841c-0.481-0.523-0.725-1.204-0.685-1.921c0.077-1.384,1.213-2.469,2.587-2.469l0.073,0.001 c2.202,0.063,4.453,0.094,6.691,0.094c0.731,0,1.486-0.003,2.261-0.011c0.768-0.007,1.386-0.632,1.386-1.4v-2.638 c0-0.381-0.155-0.745-0.43-1.009c-0.261-0.251-0.609-0.391-0.97-0.391c-0.018,0-0.036,0-0.055,0.001 c-3.429,0.134-9.104,0.219-12.943,0.252c-1.435,0-2.602-1.173-2.602-2.615c0-1.428,1.161-2.599,2.587-2.611 c4.057-0.035,9.621-0.121,13.069-0.258c0.751-0.03,1.344-0.647,1.344-1.399v-2.046c0-0.369,0.297-0.669,0.662-0.669H52.937 M42.023,67.249c1.543,0,3.174-0.61,4.361-1.632c1.109-0.955,1.768-2.175,1.96-3.627c0.05-0.378-0.057-0.761-0.296-1.059 c-0.239-0.298-0.589-0.485-0.969-0.519c-0.555-0.049-1.104-0.074-1.63-0.074c-1.809,0-3.397,0.29-4.591,0.837 c-1.497,0.685-2.256,1.674-2.256,2.939C38.6,66.705,40.461,67.249,42.023,67.249 M52.937,27h-3.875C47.923,27,47,27.926,47,29.069 v2.046c-3.466,0.139-9.117,0.224-13.025,0.257C31.779,31.391,30,33.181,30,35.384v0c0,2.217,1.797,4.015,4.002,4.015 c0.011,0,0.023,0,0.034,0c3.876-0.033,9.505-0.118,12.964-0.253v2.638c-0.77,0.008-1.52,0.011-2.247,0.011 c-2.59,0-4.876-0.043-6.652-0.094C38.064,41.7,38.026,41.7,37.988,41.7c-2.113,0-3.867,1.661-3.985,3.792l0,0.005 c-0.125,2.257,1.632,4.169,3.884,4.234c1.84,0.053,4.198,0.099,6.872,0.099c0.723,0,1.474-0.004,2.24-0.012v3.972 c-0.539-0.034-1.068-0.051-1.585-0.051c-2.84,0-5.332,0.507-7.299,1.409C34.229,56.928,32,60.197,32,64.115 c0,2.994,1.142,5.62,3.215,7.396c1.781,1.525,4.199,2.365,6.808,2.365c5.595,0,11.359-3.675,12.691-9.972 c2.15,0.942,4.436,2.232,6.785,3.951c0.715,0.522,1.548,0.778,2.375,0.778c1.121,0,2.229-0.469,3.014-1.377 c1.526-1.767,1.24-4.482-0.643-5.859c-3.817-2.79-7.633-4.73-11.245-5.959v-5.853c2.47-0.124,4.988-0.3,7.463-0.554 c2.25-0.23,3.844-2.313,3.524-4.559v0c-0.285-2.003-1.999-3.441-3.975-3.441c-0.137,0-0.275,0.007-0.414,0.021 c-2.174,0.221-4.4,0.381-6.598,0.495v-2.824c3.281-0.226,8.426-0.507,11.489-0.852c2.222-0.25,3.799-2.292,3.506-4.517 c-0.267-2.018-1.984-3.483-3.967-3.483c-0.15,0-0.301,0.008-0.453,0.025c-2.768,0.311-7.617,0.566-10.575,0.777v-1.603 C55,27.926,54.077,27,52.937,27L52.937,27z M42.023,65.849C40,65.849,40,64.763,40,64.115c0-0.301,0-1.007,1.439-1.666 c0.953-0.437,2.322-0.71,4.009-0.71c0.478,0,0.981,0.022,1.507,0.068c-0.145,1.102-0.643,2.024-1.485,2.749 C44.53,65.365,43.241,65.849,42.023,65.849L42.023,65.849z"/><g><path fill="#472b29" d="M63.5,65.25c-0.047,0-0.094-0.013-0.136-0.04c-4.735-3.075-9.086-5.158-12.929-6.192 c-0.133-0.036-0.212-0.173-0.176-0.306c0.036-0.133,0.173-0.212,0.306-0.177c3.894,1.047,8.292,3.152,13.071,6.256 c0.116,0.075,0.149,0.23,0.074,0.346C63.662,65.21,63.582,65.25,63.5,65.25z"/></g><g><path fill="#472b29" d="M48.25,58.529c-0.014,0-0.028-0.001-0.042-0.004c-2.113-0.36-4.058-0.366-5.784-0.021 c-0.131,0.026-0.267-0.06-0.294-0.196c-0.027-0.135,0.061-0.267,0.196-0.294c1.788-0.358,3.794-0.352,5.966,0.018 c0.136,0.023,0.228,0.152,0.205,0.288C48.476,58.443,48.37,58.529,48.25,58.529z"/></g><g><path fill="#472b29" d="M36.5,62.103c-0.042,0-0.085-0.011-0.124-0.033c-0.12-0.069-0.161-0.221-0.092-0.341 c0.042-0.075,1.075-1.839,3.742-3c0.126-0.055,0.274,0.003,0.329,0.13c0.055,0.127-0.002,0.274-0.129,0.329 c-2.505,1.09-3.498,2.773-3.508,2.79C36.67,62.058,36.586,62.103,36.5,62.103z"/></g><g><path fill="#472b29" d="M51.375,35.809c-0.133,0-0.244-0.105-0.25-0.239c-0.006-0.138,0.102-0.255,0.239-0.261 c4.595-0.2,9.342-0.556,14.109-1.058c0.138-0.012,0.261,0.085,0.275,0.223c0.014,0.137-0.086,0.26-0.223,0.275 c-4.778,0.503-9.536,0.859-14.141,1.06C51.382,35.809,51.379,35.809,51.375,35.809z"/></g><g><path fill="#472b29" d="M42.875,36c-0.138,0-0.25-0.112-0.25-0.25s0.112-0.25,0.25-0.25c1.974,0,4.031-0.034,6.117-0.101 c0.145-0.008,0.253,0.104,0.258,0.242c0.004,0.138-0.104,0.254-0.242,0.258C46.917,35.966,44.854,36,42.875,36z"/></g><g><path fill="#472b29" d="M40.125,35.977c-0.001,0-0.003,0-0.004,0c-3.604-0.061-5.622-0.226-5.642-0.228 c-0.137-0.011-0.24-0.132-0.228-0.27c0.011-0.138,0.138-0.24,0.27-0.228c0.02,0.002,2.022,0.166,5.608,0.226 c0.138,0.002,0.248,0.116,0.246,0.254C40.373,35.868,40.261,35.977,40.125,35.977z"/></g><g><path fill="#472b29" d="M57.125,46.169c-0.129,0-0.238-0.098-0.249-0.229c-0.012-0.138,0.09-0.259,0.228-0.271 c1.424-0.122,2.894-0.263,4.37-0.419c0.141-0.013,0.261,0.085,0.275,0.223c0.014,0.137-0.086,0.26-0.223,0.275 c-1.479,0.156-2.953,0.297-4.38,0.42C57.139,46.169,57.132,46.169,57.125,46.169z"/></g><g><path fill="#472b29" d="M42.724,46.852c-2.768,0-4.214-0.101-4.242-0.103c-0.138-0.01-0.241-0.13-0.231-0.267 c0.01-0.137,0.124-0.241,0.268-0.231c0.055,0.004,5.64,0.392,16.015-0.375c0.15-0.012,0.258,0.093,0.268,0.231 c0.011,0.138-0.093,0.258-0.23,0.268C49.416,46.755,45.436,46.852,42.724,46.852z"/></g></svg>